General
Complete name                    : Aguirre - Guds vrede.SWESUB.avi
Format                           : AVI
File size                        : 849 MiB
Duration                         : 1h 30mn
Overall bit rate                 : 1 312 Kbps

Video
ID                               : 0
Format                           : MPEG-4 Visual)
Codec ID                         : XVID
Codec ID/Hint                    : XviD
Duration                         : 1h 30mn
Bit rate                         : 1 171 Kbps
Width                            : 720 pixels
Height                           : 574 pixels
Display aspect ratio             : 4:3
Resolution                       : 8 bits
Colorimetry                      : 4:2:0
Scan type                        : Progressive
Bits/(Pixel*Frame)               : 0.113
Stream size                      : 758 MiB (89%)
Writing library                  : XviD 1.1.2 (UTC 2006-11-01)

Audio
ID                               : 1
Format                           : MPEG Audio
Format version                   : Version 1
Format profile                   : Layer 3
Mode                             : Joint stereo
Codec ID                         : 55
Codec ID/Hint                    : MP3
Duration                         : 1h 30mn
Bit rate mode                    : Constant
Bit rate                         : 128 Kbps
Channel(s)                       : 2 channels
Sampling rate                    : 48.0 KHz
Stream size                      : 82.8 MiB (10%)
)

